<svg viewBox="0 0 200 200" width="200" height="200" xmlns="http://www.w3.org/2000/svg">
  <path style="fill: rgb(127, 204, 51);" d="M 0 0 L 50 0 C 50 0 100 0 100 50 L 50 50 C 50 50 0 50 0 0 Z"/>
  <path style="fill: rgb(127, 204, 51);" d="M 0 50 L 50 50 C 50 50 100 50 100 100 L 50 100 C 50 100 0 100 0 50 Z"/>
  <path style="fill: rgb(255, 136, 76);" d="M 100 150 L 150 150 C 150 150 200 150 200 100 L 150 100 C 150 100 100 100 100 150 Z" transform="matrix(-1, 0, 0, -1, 300, 250)"/>
  <path style="fill: rgb(255, 136, 76);" d="M 100 200 L 150 200 C 150 200 200 200 200 150 L 150 150 C 150 150 100 150 100 200 Z" transform="matrix(-1, 0, 0, -1, 300, 350)"/>
  <path style="fill: rgb(118, 94, 237);" d="M 100 50 L 150 50 C 150 50 200 50 200 100 L 150 100 C 150 100 100 100 100 50 Z"/>
  <path style="fill: rgb(118, 94, 237);" d="M 100 50 L 150 50 C 150 50 200 50 200 0 L 150 0 C 150 0 100 0 100 50 Z" transform="matrix(-1, 0, 0, -1, 300, 50)"/>
  <path style="fill: rgb(92, 132, 214);" d="M -25 125 L 25 125 C 25 125 75 125 75 175 L 25 175 C 25 175 -25 175 -25 125 Z" transform="matrix(0, 1, -1, 0, 175, 125)"/>
  <path style="fill: rgb(92, 132, 214);" d="M 25 175 L 75 175 C 75 175 125 175 125 125 L 75 125 C 75 125 25 125 25 175 Z" transform="matrix(0, -1, 1, 0, -75, 225)"/>
</svg>