<?xml version="1.0" encoding="UTF-8" standalone="no"?><!DOCTYPE svg PUBLIC "-//W3C//DTD SVG 1.1//EN" "http://www.w3.org/Graphics/SVG/1.1/DTD/svg11.dtd"><svg width="100%" height="100%" viewBox="0 0 12 12" version="1.1" xmlns="http://www.w3.org/2000/svg" xmlns:xlink="http://www.w3.org/1999/xlink" xml:space="preserve" xmlns:serif="http://www.serif.com/" style="fill-rule:evenodd;clip-rule:evenodd;stroke-linejoin:round;stroke-miterlimit:2;"><path d="M5.295,0.042c0.468,-0.056 0.942,-0.056 1.41,-0c0.266,0.824 0.402,1.668 0.407,2.534c0.18,0.058 0.354,0.131 0.522,0.216c0.617,-0.608 1.31,-1.109 2.081,-1.504c0.37,0.292 0.705,0.627 0.997,0.997c-0.395,0.771 -0.896,1.464 -1.504,2.081c0.085,0.168 0.158,0.342 0.216,0.522c0.866,0.005 1.71,0.141 2.534,0.407c0.056,0.468 0.056,0.942 0,1.41c-0.824,0.266 -1.668,0.402 -2.534,0.407c-0.058,0.18 -0.131,0.354 -0.216,0.522c0.608,0.617 1.109,1.31 1.504,2.081c-0.292,0.37 -0.627,0.705 -0.997,0.997c-0.771,-0.395 -1.464,-0.896 -2.081,-1.504c-0.168,0.085 -0.342,0.158 -0.522,0.216c-0.005,0.866 -0.141,1.71 -0.407,2.534c-0.468,0.056 -0.942,0.056 -1.41,0c-0.266,-0.824 -0.402,-1.668 -0.407,-2.534c-0.18,-0.058 -0.354,-0.131 -0.522,-0.216c-0.617,0.608 -1.31,1.109 -2.081,1.504c-0.37,-0.292 -0.705,-0.627 -0.997,-0.997c0.395,-0.771 0.896,-1.464 1.504,-2.081c-0.085,-0.168 -0.158,-0.342 -0.216,-0.522c-0.866,-0.005 -1.71,-0.141 -2.534,-0.407c-0.056,-0.468 -0.056,-0.942 -0,-1.41c0.824,-0.266 1.668,-0.402 2.534,-0.407c0.058,-0.18 0.131,-0.354 0.216,-0.522c-0.608,-0.617 -1.109,-1.31 -1.504,-2.081c0.292,-0.37 0.627,-0.705 0.997,-0.997c0.771,0.395 1.464,0.896 2.081,1.504c0.168,-0.085 0.342,-0.158 0.522,-0.216c0.005,-0.866 0.141,-1.71 0.407,-2.534Zm0.705,4.083c1.035,-0 1.875,0.84 1.875,1.875c-0,1.035 -0.84,1.875 -1.875,1.875c-1.035,-0 -1.875,-0.84 -1.875,-1.875c-0,-1.035 0.84,-1.875 1.875,-1.875Z"/></svg>