<?xml version="1.0" encoding="utf-8"?>
<svg width="100%" height="100%" viewBox="0 0 12 12" version="1.1" xmlns="http://www.w3.org/2000/svg">
  <path d="M 7.9 6 C 7.9 7.049 7.049 7.9 6 7.9 C 4.951 7.9 4.1 7.049 4.1 6 C 4.1 4.951 4.951 4.1 6 4.1 C 7.049 4.1 7.9 4.951 7.9 6 Z M 4.888 2.576 C 4.708 2.634 4.534 2.707 4.366 2.792 C 3.749 2.184 3.056 1.683 2.285 1.288 C 1.915 1.58 1.58 1.915 1.288 2.285 C 1.683 3.056 2.184 3.749 2.792 4.366 C 2.707 4.534 2.634 4.708 2.576 4.888 C 1.71 4.893 0.866 5.029 0.042 5.295 C -0.014 5.763 -0.014 6.237 0.042 6.705 C 0.866 6.971 1.71 7.107 2.576 7.112 C 2.634 7.292 2.707 7.466 2.792 7.634 C 2.184 8.251 1.683 8.944 1.288 9.715 C 1.58 10.085 1.915 10.42 2.285 10.712 C 3.056 10.317 3.749 9.816 4.366 9.208 C 4.534 9.293 4.708 9.366 4.888 9.424 C 4.893 10.29 5.029 11.134 5.295 11.958 C 5.763 12.014 6.237 12.014 6.705 11.958 C 6.971 11.134 7.107 10.29 7.112 9.424 C 7.292 9.366 7.466 9.293 7.634 9.208 C 8.251 9.816 8.944 10.317 9.715 10.712 C 10.085 10.42 10.42 10.085 10.712 9.715 C 10.317 8.944 9.816 8.251 9.208 7.634 C 9.293 7.466 9.366 7.292 9.424 7.112 C 10.29 7.107 11.134 6.971 11.958 6.705 C 12.014 6.237 12.014 5.763 11.958 5.295 C 11.134 5.029 10.29 4.893 9.424 4.888 C 9.366 4.708 9.293 4.534 9.208 4.366 C 9.816 3.749 10.317 3.056 10.712 2.285 C 10.42 1.915 10.085 1.58 9.715 1.288 C 8.944 1.683 8.251 2.184 7.634 2.792 C 7.466 2.707 7.292 2.634 7.112 2.576 C 7.107 1.71 6.971 0.866 6.705 0.042 C 6.237 -0.014 5.763 -0.014 5.295 0.042 C 5.029 0.866 4.893 1.71 4.888 2.576 Z" style="fill: rgb(255, 255, 255);"/>
</svg>